<svg width="211" height="56" viewBox="0 0 211 56" fill="none" xmlns="http://www.w3.org/2000/svg">
<path d="M34.003 28.4048C34.7549 28.3483 35.3299 27.6938 35.1452 26.9696C34.8486 25.8069 34.2857 24.7205 33.4931 23.7983C32.4037 22.5308 30.9364 21.6385 29.3022 21.2498C27.6683 20.861 25.9518 20.9957 24.3999 21.6348C22.8482 22.2736 21.5413 23.3839 20.667 24.8056C19.7928 26.2271 19.3967 27.8869 19.5354 29.5457C19.6743 31.2046 20.341 32.7769 21.4395 34.0367C22.5381 35.2963 24.0117 36.1782 25.6485 36.5554C26.8396 36.8299 28.0722 36.827 29.2514 36.5545C29.9857 36.3848 30.3093 35.5783 30.0147 34.8907C29.7202 34.2031 28.9162 33.902 28.1694 34.0055C27.5394 34.0928 26.8947 34.0655 26.2673 33.9211C25.1936 33.6734 24.2268 33.0951 23.506 32.2686C22.7854 31.4421 22.348 30.4105 22.2569 29.3224C22.1659 28.234 22.4258 27.1451 22.9992 26.2125C23.5729 25.2799 24.4303 24.5515 25.4483 24.1324C26.4664 23.7131 27.5924 23.6247 28.6644 23.8796C29.7363 24.1348 30.6991 24.7203 31.4136 25.5517C31.8312 26.0375 32.1514 26.5924 32.3621 27.1869C32.6122 27.8916 33.2511 28.4611 34.003 28.4048Z" fill="#3A6FC4"/>
<path d="M35.962 22.0095C36.4737 21.5955 36.5538 20.8443 36.0877 20.3804C34.5971 18.8965 32.737 17.817 30.6862 17.2572C28.6356 16.6974 26.4799 16.6806 24.4322 17.1985C23.7919 17.3605 23.4721 18.0463 23.6975 18.6614C23.923 19.2766 24.6084 19.5865 25.2523 19.4399C26.8294 19.0805 28.4784 19.1127 30.0506 19.5417C31.6226 19.9711 33.0555 20.7803 34.2241 21.889C34.7013 22.3417 35.4503 22.4233 35.962 22.0095Z" fill="#3A6FC4"/>
<path d="M19.3578 21.5244C18.8716 21.0814 18.1094 21.1095 17.712 21.6323C16.5965 23.099 15.8303 24.8031 15.4782 26.6167C15.0506 28.8195 15.2512 31.0965 16.057 33.1925C16.8631 35.2887 18.2427 37.1209 20.0411 38.4839C21.8396 39.8469 23.9857 40.6867 26.2392 40.9091C28.4926 41.1315 30.764 40.7279 32.7985 39.743C34.8332 38.7584 36.5506 37.2319 37.7582 35.3346C38.9662 33.437 39.6163 31.244 39.636 29.0011C39.6523 27.1543 39.2406 25.3341 38.4392 23.678C38.1536 23.0879 37.412 22.9113 36.8471 23.2507C36.2822 23.5898 36.1093 24.3164 36.3806 24.9132C36.9596 26.1869 37.2559 27.5743 37.2434 28.9805C37.2275 30.783 36.7051 32.5456 35.7345 34.0706C34.7639 35.5955 33.3835 36.8225 31.7482 37.6138C30.1129 38.4053 28.2875 38.7298 26.4765 38.551C24.6654 38.3722 22.9404 37.6973 21.495 36.6019C20.0496 35.5065 18.9407 34.0338 18.293 32.3491C17.6454 30.6645 17.4841 28.8343 17.8279 27.0641C18.0958 25.6832 18.6627 24.3811 19.484 23.2454C19.8688 22.7135 19.844 21.9674 19.3578 21.5244Z" fill="#3A6FC4"/>
<path d="M38.4485 17.9723C38.9544 17.4699 38.9564 16.6525 38.4118 16.1915C36.3677 14.4608 33.9304 13.2349 31.2999 12.624C28.2478 11.9151 25.0566 12.0624 22.0841 13.0495C19.1117 14.0365 16.4756 15.8242 14.4717 18.2122C12.4676 20.6 11.1748 23.4937 10.7382 26.5686C10.3016 29.6437 10.7385 32.7782 11.9998 35.621C13.2612 38.4637 15.2972 40.9022 17.8794 42.663C20.4618 44.4239 23.4882 45.4374 26.6195 45.5898C29.3177 45.7211 32.0021 45.2087 34.4488 44.1036C35.1005 43.8092 35.3262 43.0228 34.98 42.4019C34.6336 41.781 33.8465 41.5614 33.1908 41.8468C31.1693 42.7262 28.9637 43.1318 26.7467 43.0239C24.0967 42.895 21.5355 42.0373 19.3501 40.5471C17.1648 39.0569 15.4417 36.9933 14.3742 34.5874C13.3067 32.1817 12.937 29.5288 13.3065 26.9264C13.676 24.3242 14.7701 21.8753 16.4662 19.8544C18.1621 17.8334 20.3929 16.3205 22.9085 15.4852C25.4241 14.6498 28.1248 14.5251 30.7079 15.1251C32.869 15.627 34.8762 16.6195 36.5744 18.0171C37.1252 18.4703 37.9428 18.4745 38.4485 17.9723Z" fill="#3A6FC4"/>
<path d="M41.8461 14.5981C42.3357 14.1121 42.337 13.322 41.8186 12.8662C39.1351 10.5059 35.8956 8.83905 32.3888 8.02459C28.4739 7.11534 24.3805 7.30434 20.5681 8.57037C16.7556 9.83639 13.3745 12.1294 10.804 15.1922C8.23356 18.255 6.57534 21.9666 6.01536 25.9107C5.45537 29.8546 6.01574 33.8752 7.63363 37.5214C9.25151 41.1678 11.8629 44.2955 15.1751 46.5539C18.4873 48.8125 22.3691 50.1123 26.3853 50.3079C29.9828 50.4829 33.561 49.7659 36.7976 48.2303C37.4226 47.9337 37.6414 47.1739 37.3063 46.5729C36.9711 45.9719 36.2091 45.7579 35.5818 46.0499C32.7552 47.3648 29.6402 47.9771 26.5085 47.8247C22.9579 47.6519 19.5263 46.5027 16.5983 44.5061C13.6703 42.5096 11.3617 39.7446 9.93146 36.5213C8.5012 33.2979 8.0058 29.7434 8.50086 26.257C8.9959 22.7702 10.4618 19.4891 12.7342 16.7815C15.0064 14.0738 17.9955 12.0467 21.366 10.9275C24.7364 9.8083 28.3549 9.64124 31.8158 10.445C34.8686 11.154 37.6921 12.5937 40.0429 14.6298C40.5646 15.0817 41.3568 15.0842 41.8461 14.5981Z" fill="#3A6FC4"/>
<path d="M2.12128 27.6266C1.42299 27.5916 0.825099 28.1242 0.822997 28.8166C0.812508 32.2619 1.48371 35.68 2.80313 38.8765C4.28246 42.4602 6.54033 45.6773 9.41639 48.2995C12.2924 50.9216 15.7162 52.8842 19.4444 54.0481C22.7695 55.0861 26.264 55.466 29.7294 55.1708C30.426 55.1116 30.9125 54.4774 30.8194 53.7909C30.7266 53.1044 30.0895 52.6262 29.3926 52.682C26.296 52.9305 23.1759 52.5836 20.2054 51.6561C16.8318 50.603 13.7337 48.8271 11.1312 46.4542C8.52861 44.0815 6.48547 41.1703 5.14682 37.9273C3.9681 35.0717 3.36108 32.0207 3.35493 28.9436C3.35354 28.2509 2.81959 27.6616 2.12128 27.6266Z" fill="#E7BE56"/>
<path d="M41.2512 7.82547C41.6319 7.24451 41.4664 6.46514 40.8623 6.11623C37.659 4.26552 34.0964 3.0957 30.4015 2.6872C26.2867 2.23225 22.1215 2.7341 18.2368 4.15284C14.3522 5.57158 10.8551 7.86811 8.02347 10.86C5.48083 13.5465 3.53764 16.7273 2.31403 20.1947C2.08332 20.8484 2.46821 21.5478 3.13848 21.7449C3.80872 21.9421 4.51025 21.5624 4.74425 20.9098C5.85362 17.8156 7.59741 14.9772 9.87072 12.5752C12.4331 9.86787 15.5975 7.78971 19.1128 6.5059C22.628 5.22209 26.3971 4.76797 30.1206 5.17964C33.4241 5.54489 36.6108 6.58266 39.4824 8.22274C40.0883 8.56869 40.8706 8.40642 41.2512 7.82547Z" fill="#3A6FC4"/>
<path d="M34.2797 53.085C34.4683 53.752 35.168 54.1443 35.8316 53.9261C40.858 52.2747 45.2739 49.175 48.5125 45.0249C48.9401 44.4771 48.7983 43.6931 48.2256 43.2959C47.6526 42.899 46.8658 43.0394 46.4355 43.5852C43.5362 47.262 39.6114 50.017 35.1486 51.5081C34.4859 51.7294 34.0914 52.4181 34.2797 53.085Z" fill="#3A6FC4"/>
<path d="M50.0814 40.2236C50.7056 40.5359 51.47 40.2891 51.7554 39.6569C53.3023 36.2287 54.0942 32.5078 54.0723 28.7433C54.0502 24.9786 53.2149 21.2673 51.6279 17.857C51.3351 17.2281 50.5678 16.99 49.9476 17.3094C49.3273 17.6291 49.0891 18.3849 49.3785 19.0153C50.7821 22.0714 51.5205 25.3911 51.5402 28.7577C51.5599 32.1246 50.8601 35.4525 49.4925 38.5245C49.2103 39.1583 49.4574 39.9112 50.0814 40.2236Z" fill="#E7BE56"/>
<path d="M39.4136 45.2467C39.8205 45.8025 40.6079 45.9292 41.1444 45.4946C44.7203 42.6 47.277 38.6394 48.4219 34.1856C49.5669 29.7315 49.2337 25.0424 47.491 20.8063C47.2294 20.1705 46.4768 19.9087 45.851 20.2042C45.2255 20.4997 44.9643 21.2402 45.221 21.878C46.7141 25.5878 46.9896 29.6814 45.9895 33.5722C44.9893 37.4627 42.7708 40.9275 39.6684 43.4781C39.135 43.9167 39.0068 44.6907 39.4136 45.2467Z" fill="#E7BE56"/>
<path d="M42.4473 33.3231C43.0945 33.514 43.7802 33.1498 43.9258 32.4966C44.3809 30.4526 44.4453 28.3382 44.1114 26.2642C43.7775 24.1901 43.0525 22.2004 41.9781 20.3979C41.6346 19.8219 40.8686 19.687 40.3135 20.0678C39.7582 20.4488 39.6249 21.2011 39.9612 21.7813C40.831 23.2823 41.4201 24.9302 41.6963 26.6456C41.9725 28.361 41.93 30.1088 41.5746 31.803C41.4371 32.458 41.8001 33.1321 42.4473 33.3231Z" fill="#3A6FC4"/>
<path d="M36.5106 41.4538C36.8982 42.0018 37.6639 42.138 38.1875 41.7156C40.0176 40.2392 41.5149 38.3986 42.5819 36.3134C42.8872 35.7166 42.5897 35.0047 41.9669 34.7462C41.344 34.4876 40.6319 34.7814 40.3193 35.3742C39.4401 37.0413 38.2371 38.5202 36.7799 39.7257C36.2614 40.1545 36.1232 40.9059 36.5106 41.4538Z" fill="#3A6FC4"/>
<path d="M31.0398 34.3495C31.4517 34.9751 32.308 35.1589 32.8598 34.6497C33.4267 34.1264 33.9152 33.5224 34.3077 32.8549C34.7004 32.1875 34.9902 31.4686 35.17 30.7221C35.3454 29.9955 34.7617 29.3485 34.0091 29.302C33.2563 29.2552 32.6249 29.8329 32.3845 30.5409C32.2725 30.871 32.1264 31.1902 31.9482 31.4932C31.77 31.7961 31.5617 32.0794 31.3269 32.3388C30.8237 32.895 30.6278 33.7239 31.0398 34.3495Z" fill="#E7BE56"/>
<path d="M27.4478 31.8868C29.1153 31.8868 30.467 30.5479 30.467 28.8963C30.467 27.2447 29.1153 25.9058 27.4478 25.9058C25.7803 25.9058 24.4286 27.2447 24.4286 28.8963C24.4286 30.5479 25.7803 31.8868 27.4478 31.8868Z" fill="#3A6FC4"/>
<path d="M47.9113 8.50961L40.4192 16.0515M27.3359 29.2216L40.4192 16.0515L27.3359 29.2216ZM47.9113 8.50961L47.3734 1.90426C47.3656 1.80659 47.2428 1.7665 47.1777 1.84031L40.4467 9.47514C40.429 9.49532 40.4192 9.5212 40.4192 9.548V16.0515L47.9113 8.50961ZM47.9113 8.50961H54.1125C54.2141 8.50961 54.263 8.63297 54.1886 8.70149L46.488 15.7918C46.4683 15.8098 46.4428 15.8203 46.4162 15.8213L40.4192 16.0515L47.9113 8.50961Z" stroke="#3A6FC4" stroke-width="2.2"/>
<path d="M63.8386 12.1937H77.4922V25.7912H73.8181V15.3902H67.463V25.7912H63.8386V12.1937ZM84.4822 16.0787C83.7209 16.8163 83.3403 17.7917 83.3403 19.0047C83.3403 20.2178 83.7209 21.2013 84.4822 21.9553C85.26 22.693 86.2365 23.0618 87.4115 23.0618C88.57 23.0618 89.5299 22.693 90.2912 21.9553C91.069 21.2013 91.4579 20.2178 91.4579 19.0047C91.4579 17.7917 91.069 16.8163 90.2912 16.0787C89.5299 15.3246 88.57 14.9476 87.4115 14.9476C86.2365 14.9476 85.26 15.3246 84.4822 16.0787ZM92.8481 13.8903C94.3707 15.2345 95.132 16.9393 95.132 19.0047C95.132 21.0702 94.3707 22.775 92.8481 24.1191C91.3255 25.4633 89.5133 26.1354 87.4115 26.1354C85.3097 26.1354 83.4975 25.4633 81.9749 24.1191C80.4523 22.775 79.691 21.0702 79.691 19.0047C79.691 16.9393 80.4523 15.2345 81.9749 13.8903C83.4975 12.5461 85.3097 11.874 87.4115 11.874C89.5133 11.874 91.3255 12.5461 92.8481 13.8903ZM97.3422 12.1937H100.967V20.8243L108.191 12.1937H111.666V25.7912H108.042V17.2097L100.843 25.7912H97.3422V12.1937ZM128.643 15.7344L125.813 17.3327C125.284 16.5623 124.68 15.9967 124.001 15.6361C123.339 15.2591 122.503 15.0705 121.494 15.0705C120.269 15.0705 119.285 15.4312 118.54 16.1524C117.812 16.8573 117.448 17.8081 117.448 19.0047C117.448 20.185 117.82 21.1357 118.565 21.857C119.309 22.5783 120.286 22.9389 121.494 22.9389C123.381 22.9389 124.812 22.193 125.789 20.7013L128.619 22.275C127.228 24.8486 124.87 26.1354 121.544 26.1354C119.293 26.1354 117.439 25.4879 115.983 24.1929C114.543 22.8979 113.823 21.1685 113.823 19.0047C113.823 16.8573 114.551 15.1361 116.008 13.8411C117.481 12.5297 119.326 11.874 121.544 11.874C124.854 11.874 127.22 13.1608 128.643 15.7344ZM130.749 12.1937H134.373V16.9885H137.6L140.902 12.1937H145.122L140.703 18.4884L145.42 25.7912H141.076L137.7 20.3079H134.373V25.7912H130.749V12.1937ZM150.859 16.0787C150.098 16.8163 149.717 17.7917 149.717 19.0047C149.717 20.2178 150.098 21.2013 150.859 21.9553C151.637 22.693 152.613 23.0618 153.788 23.0618C154.947 23.0618 155.907 22.693 156.668 21.9553C157.446 21.2013 157.835 20.2178 157.835 19.0047C157.835 17.7917 157.446 16.8163 156.668 16.0787C155.907 15.3246 154.947 14.9476 153.788 14.9476C152.613 14.9476 151.637 15.3246 150.859 16.0787ZM159.225 13.8903C160.747 15.2345 161.509 16.9393 161.509 19.0047C161.509 21.0702 160.747 22.775 159.225 24.1191C157.702 25.4633 155.89 26.1354 153.788 26.1354C151.686 26.1354 149.874 25.4633 148.352 24.1191C146.829 22.775 146.068 21.0702 146.068 19.0047C146.068 16.9393 146.829 15.2345 148.352 13.8903C149.874 12.5461 151.686 11.874 153.788 11.874C155.89 11.874 157.702 12.5461 159.225 13.8903ZM163.719 12.1937H172.631C173.889 12.1937 174.915 12.5379 175.709 13.2264C176.52 13.9149 176.926 14.8247 176.926 15.9557C176.926 16.9393 176.603 17.6523 175.958 18.0949C177.215 18.8162 177.844 19.9555 177.844 21.5128C177.844 22.7094 177.406 23.7257 176.529 24.5617C175.668 25.3814 174.609 25.7912 173.351 25.7912H163.719V12.1937ZM167.368 15.4394V17.2589H172.606C172.788 17.2589 172.954 17.1688 173.103 16.9885C173.268 16.7917 173.351 16.5786 173.351 16.3491C173.351 16.136 173.277 15.9311 173.128 15.7344C172.995 15.5377 172.78 15.4394 172.482 15.4394H167.368ZM167.368 20.4063V22.5209H173.252C173.55 22.5209 173.79 22.4307 173.972 22.2504C174.17 22.0537 174.27 21.7996 174.27 21.4882C174.27 21.1767 174.162 20.9226 173.947 20.7259C173.732 20.5128 173.467 20.4063 173.152 20.4063H167.368ZM186.86 15.4148L184.675 20.6522H189.516L187.431 15.4148H186.86ZM184.526 12.1937H189.839L195.672 25.7912H191.8L190.931 23.7995H183.335L182.49 25.7912H178.568L184.526 12.1937ZM210.894 12.1937V25.7912H207.245V22.9389H202.975L201.51 25.7912H197.538L199.599 22.1029C198.837 21.6603 198.217 21.0538 197.737 20.2833C197.273 19.4965 197.042 18.6031 197.042 17.6032C197.042 15.9967 197.588 14.6935 198.68 13.6936C199.772 12.6936 201.146 12.1937 202.801 12.1937H210.894ZM207.245 15.4885H202.925C202.263 15.4885 201.725 15.6771 201.312 16.0541C200.898 16.4311 200.691 16.9475 200.691 17.6032C200.691 18.2425 200.898 18.7424 201.312 19.1031C201.725 19.4473 202.263 19.6194 202.925 19.6194H207.245V15.4885ZM63.8386 32.7949H67.463V41.4255L74.687 32.7949H78.1624V46.3924H74.538V37.811L67.3389 46.3924H63.8386V32.7949ZM80.7914 32.7949H84.4406V37.7618H91.1681V32.7949H94.8421V46.3924H91.1681V41.0075H84.4406V46.3924H80.7914V32.7949ZM100.879 32.7949H112.075V43.1467H113.639V48.8759H110.461L110.188 46.3924H100.656L100.407 48.8759H97.2049V43.1467H98.893L100.879 32.7949ZM103.883 35.9423L102.691 43.1467H108.426V35.9423H103.883ZM114.825 32.7949H118.599L120.485 38.3765C120.601 38.7044 120.833 38.8683 121.18 38.8683H124.656L126.716 32.7949H130.465L126.791 43.491C126.493 44.3434 125.972 45.0401 125.227 45.581C124.482 46.122 123.655 46.3924 122.744 46.3924H118.698V43.3434H122.595C123.026 43.3434 123.324 43.1222 123.489 42.6796L123.663 42.0894H121.031C119.956 42.0894 119.103 41.8599 118.474 41.4009C117.846 40.942 117.357 40.2125 117.01 39.2126L114.825 32.7949ZM146.126 36.3357L143.296 37.934C142.767 37.1635 142.163 36.598 141.484 36.2373C140.822 35.8603 139.986 35.6718 138.977 35.6718C137.752 35.6718 136.767 36.0324 136.023 36.7537C135.294 37.4586 134.93 38.4093 134.93 39.606C134.93 40.7862 135.303 41.737 136.047 42.4583C136.792 43.1795 137.769 43.5402 138.977 43.5402C140.863 43.5402 142.295 42.7943 143.271 41.3026L146.101 42.8763C144.711 45.4499 142.353 46.7367 139.026 46.7367C136.776 46.7367 134.922 46.0892 133.466 44.7942C132.026 43.4992 131.306 41.7698 131.306 39.606C131.306 37.4586 132.034 35.7374 133.49 34.4424C134.963 33.131 136.809 32.4753 139.026 32.4753C142.336 32.4753 144.703 33.7621 146.126 36.3357ZM147.865 32.7949H162.213V36.0406H156.876V46.3924H153.202V36.0406H147.865V32.7949ZM164.415 32.7949H172.533C174.205 32.7949 175.578 33.3031 176.654 34.3194C177.73 35.3194 178.268 36.6144 178.268 38.2044C178.268 39.7945 177.73 41.0731 176.654 42.0402C175.578 43.0074 174.205 43.491 172.533 43.491H168.065V46.3924H164.415V32.7949ZM168.065 36.0898V40.1961H172.384C173.046 40.1961 173.576 40.024 173.973 39.6797C174.387 39.3355 174.594 38.8437 174.594 38.2044C174.594 37.5651 174.387 37.057 173.973 36.6799C173.576 36.2865 173.046 36.0898 172.384 36.0898H168.065ZM180.471 32.7949H184.096V41.4255L191.32 32.7949H194.795V46.3924H191.171V37.811L183.971 46.3924H180.471V32.7949ZM210.804 32.7949V46.3924H207.155V43.5402H202.885L201.42 46.3924H197.449L199.509 42.7041C198.748 42.2615 198.127 41.655 197.647 40.8846C197.184 40.0978 196.952 39.2044 196.952 38.2044C196.952 36.598 197.498 35.2948 198.59 34.2948C199.683 33.2949 201.056 32.7949 202.711 32.7949H210.804ZM207.155 36.0898H202.835C202.174 36.0898 201.636 36.2783 201.222 36.6553C200.808 37.0324 200.601 37.5487 200.601 38.2044C200.601 38.8437 200.808 39.3437 201.222 39.7043C201.636 40.0486 202.174 40.2207 202.835 40.2207H207.155V36.0898Z" fill="#1F232E"/>
</svg>
