<svg width="227" height="70" viewBox="0 0 227 70" fill="none" xmlns="http://www.w3.org/2000/svg">
<path d="M42.003 34.4048C42.7549 34.3483 43.3299 33.6937 43.1452 32.9695C42.8486 31.8068 42.2857 30.7205 41.4931 29.7983C40.4037 28.5307 38.9364 27.6385 37.3022 27.2497C35.6683 26.8609 33.9518 26.9956 32.3999 27.6347C30.8482 28.2736 29.5413 29.3838 28.667 30.8055C27.7928 32.227 27.3967 33.8869 27.5354 35.5456C27.6743 37.2045 28.341 38.7769 29.4395 40.0367C30.5381 41.2962 32.0117 42.1781 33.6485 42.5553C34.8396 42.8298 36.0722 42.8269 37.2514 42.5545C37.9857 42.3848 38.3093 41.5782 38.0147 40.8906C37.7202 40.203 36.9162 39.902 36.1694 40.0054C35.5394 40.0927 34.8947 40.0655 34.2673 39.921C33.1936 39.6734 32.2268 39.095 31.506 38.2685C30.7854 37.442 30.348 36.4104 30.2569 35.3223C30.1659 34.234 30.4258 33.145 30.9992 32.2124C31.5729 31.2798 32.4303 30.5514 33.4483 30.1323C34.4664 29.713 35.5924 29.6246 36.6644 29.8796C37.7363 30.1348 38.6991 30.7202 39.4136 31.5516C39.8312 32.0374 40.1514 32.5923 40.3621 33.1869C40.6122 33.8915 41.2511 34.461 42.003 34.4048Z" fill="#3A6FC4"/>
<path d="M43.962 28.0095C44.4737 27.5955 44.5538 26.8443 44.0877 26.3805C42.5971 24.8965 40.737 23.8171 38.6862 23.2573C36.6356 22.6975 34.4799 22.6807 32.4322 23.1986C31.7919 23.3605 31.4721 24.0463 31.6975 24.6615C31.923 25.2767 32.6084 25.5866 33.2523 25.4399C34.8294 25.0806 36.4784 25.1127 38.0506 25.5418C39.6226 25.9711 41.0555 26.7803 42.2241 27.889C42.7013 28.3418 43.4503 28.4233 43.962 28.0095Z" fill="#3A6FC4"/>
<path d="M27.3578 27.5246C26.8716 27.0816 26.1094 27.1097 25.712 27.6325C24.5965 29.0992 23.8303 30.8033 23.4782 32.6169C23.0506 34.8197 23.2512 37.0967 24.057 39.1927C24.8631 41.2889 26.2427 43.1211 28.0411 44.4841C29.8396 45.8471 31.9857 46.6869 34.2392 46.9093C36.4926 47.1317 38.764 46.7281 40.7985 45.7432C42.8332 44.7586 44.5506 43.2321 45.7582 41.3348C46.9662 39.4373 47.6163 37.2442 47.636 35.0013C47.6523 33.1545 47.2406 31.3343 46.4392 29.6782C46.1536 29.0881 45.412 28.9116 44.8471 29.2509C44.2822 29.5901 44.1093 30.3167 44.3806 30.9134C44.9596 32.1872 45.2559 33.5745 45.2434 34.9807C45.2275 36.7832 44.7051 38.5459 43.7345 40.0708C42.7639 41.5957 41.3835 42.8227 39.7482 43.614C38.1129 44.4055 36.2875 44.73 34.4765 44.5513C32.6654 44.3725 30.9404 43.6975 29.495 42.6021C28.0496 41.5067 26.9407 40.034 26.293 38.3494C25.6454 36.6647 25.4841 34.8345 25.8279 33.0644C26.0958 31.6834 26.6627 30.3813 27.484 29.2456C27.8688 28.7138 27.844 27.9677 27.3578 27.5246Z" fill="#3A6FC4"/>
<path d="M46.4485 23.9721C46.9544 23.4697 46.9564 22.6523 46.4118 22.1913C44.3677 20.4606 41.9304 19.2346 39.2999 18.6237C36.2478 17.9148 33.0566 18.0622 30.0841 19.0492C27.1117 20.0363 24.4756 21.824 22.4717 24.212C20.4676 26.5998 19.1748 29.4934 18.7382 32.5684C18.3016 35.6435 18.7385 38.778 19.9998 41.6207C21.2612 44.4635 23.2972 46.902 25.8794 48.6628C28.4618 50.4237 31.4882 51.4371 34.6195 51.5895C37.3177 51.7209 40.0021 51.2085 42.4488 50.1033C43.1005 49.8089 43.3262 49.0226 42.98 48.4016C42.6336 47.7807 41.8465 47.5612 41.1908 47.8465C39.1693 48.7259 36.9637 49.1315 34.7467 49.0237C32.0967 48.8947 29.5355 48.037 27.3501 46.5469C25.1648 45.0567 23.4417 42.993 22.3742 40.5871C21.3067 38.1814 20.937 35.5285 21.3065 32.9261C21.676 30.3239 22.7701 27.875 24.4662 25.8541C26.1621 23.8332 28.3929 22.3202 30.9085 21.4849C33.4241 20.6496 36.1248 20.5249 38.7079 21.1248C40.869 21.6267 42.8762 22.6193 44.5744 24.0168C45.1252 24.4701 45.9428 24.4743 46.4485 23.9721Z" fill="#3A6FC4"/>
<path d="M49.8461 20.5981C50.3357 20.1121 50.337 19.322 49.8186 18.8662C47.1351 16.5059 43.8956 14.839 40.3888 14.0246C36.4739 13.1153 32.3805 13.3043 28.5681 14.5704C24.7556 15.8364 21.3745 18.1294 18.804 21.1922C16.2336 24.255 14.5753 27.9666 14.0154 31.9107C13.4554 35.8546 14.0157 39.8752 15.6336 43.5214C17.2515 47.1678 19.8629 50.2955 23.1751 52.5539C26.4873 54.8125 30.3691 56.1123 34.3853 56.3079C37.9828 56.4829 41.561 55.7659 44.7976 54.2303C45.4226 53.9337 45.6414 53.1739 45.3063 52.5729C44.9711 51.9719 44.2091 51.7579 43.5818 52.0499C40.7552 53.3648 37.6402 53.9771 34.5085 53.8247C30.9579 53.6519 27.5263 52.5027 24.5983 50.5061C21.6703 48.5096 19.3617 45.7446 17.9315 42.5213C16.5012 39.2979 16.0058 35.7434 16.5009 32.257C16.9959 28.7702 18.4618 25.4891 20.7342 22.7815C23.0064 20.0738 25.9955 18.0467 29.366 16.9275C32.7364 15.8083 36.3549 15.6412 39.8158 16.445C42.8686 17.154 45.6921 18.5937 48.0429 20.6298C48.5646 21.0817 49.3568 21.0842 49.8461 20.5981Z" fill="#3A6FC4"/>
<path d="M10.1214 33.6266C9.42311 33.5916 8.82522 34.1241 8.82312 34.8166C8.81263 38.2619 9.48383 41.6799 10.8033 44.8764C12.2826 48.4602 14.5405 51.6773 17.4165 54.2994C20.2926 56.9215 23.7163 58.8842 27.4445 60.048C30.7697 61.0861 34.2641 61.466 37.7295 61.1707C38.4262 61.1115 38.9126 60.4773 38.8196 59.7908C38.7267 59.1044 38.0896 58.6261 37.3927 58.6819C34.2961 58.9305 31.176 58.5836 28.2056 57.6561C24.8319 56.603 21.7338 54.827 19.1313 52.4541C16.5287 50.0814 14.4856 47.1702 13.1469 43.9272C11.9682 41.0716 11.3612 38.0206 11.3551 34.9435C11.3537 34.2508 10.8197 33.6616 10.1214 33.6266Z" fill="#E7BE56"/>
<path d="M49.2512 13.8254C49.6319 13.2445 49.4664 12.4651 48.8623 12.1162C45.659 10.2655 42.0964 9.09564 38.4015 8.68714C34.2867 8.23218 30.1215 8.73404 26.2368 10.1528C22.3522 11.5715 18.8551 13.868 16.0235 16.8599C13.4808 19.5464 11.5376 22.7272 10.314 26.1947C10.0833 26.8484 10.4682 27.5477 11.1385 27.7448C11.8087 27.942 12.5102 27.5623 12.7442 26.9097C13.8536 23.8155 15.5974 20.9771 17.8707 18.5752C20.4331 15.8678 23.5975 13.7897 27.1128 12.5058C30.628 11.222 34.3971 10.7679 38.1206 11.1796C41.4241 11.5448 44.6108 12.5826 47.4824 14.2227C48.0883 14.5686 48.8706 14.4064 49.2512 13.8254Z" fill="#3A6FC4"/>
<path d="M42.2797 59.0851C42.4683 59.7521 43.168 60.1444 43.8316 59.9262C48.858 58.2748 53.2739 55.1751 56.5125 51.0249C56.9401 50.4771 56.7983 49.6932 56.2256 49.296C55.6526 48.899 54.8658 49.0395 54.4355 49.5853C51.5362 53.262 47.6114 56.0171 43.1486 57.5081C42.4859 57.7294 42.0914 58.4181 42.2797 59.0851Z" fill="#3A6FC4"/>
<path d="M58.0813 46.2237C58.7055 46.536 59.4699 46.2893 59.7552 45.657C61.3022 42.2288 62.0941 38.508 62.0722 34.7435C62.0501 30.9787 61.2147 27.2674 59.6278 23.8571C59.335 23.2282 58.5677 22.9901 57.9475 23.3095C57.3271 23.6292 57.0889 24.385 57.3783 25.0155C58.7819 28.0715 59.5204 31.3912 59.5401 34.7579C59.5598 38.1247 58.86 41.4526 57.4924 44.5246C57.2102 45.1584 57.4573 45.9114 58.0813 46.2237Z" fill="#E7BE56"/>
<path d="M47.4138 51.2469C47.8206 51.8027 48.608 51.9294 49.1446 51.4947C52.7204 48.6002 55.2771 44.6396 56.422 40.1858C57.567 35.7317 57.2338 31.0426 55.4912 26.8065C55.2295 26.1707 54.4769 25.9089 53.8512 26.2044C53.2256 26.4999 52.9644 27.2404 53.2212 27.8782C54.7142 31.5879 54.9897 35.6816 53.9896 39.5724C52.9895 43.4629 50.7709 46.9277 47.6685 49.4783C47.1351 49.9169 47.007 50.6909 47.4138 51.2469Z" fill="#E7BE56"/>
<path d="M50.4473 39.3231C51.0945 39.5141 51.7802 39.1499 51.9258 38.4966C52.3809 36.4527 52.4453 34.3383 52.1114 32.2642C51.7775 30.1901 51.0525 28.2004 49.9781 26.3979C49.6346 25.822 48.8686 25.6871 48.3135 26.0679C47.7582 26.4489 47.6249 27.2012 47.9612 27.7813C48.831 29.2823 49.4201 30.9302 49.6963 32.6457C49.9725 34.3611 49.93 36.1089 49.5746 37.8031C49.4371 38.4581 49.8001 39.1322 50.4473 39.3231Z" fill="#3A6FC4"/>
<path d="M44.5106 47.4538C44.8982 48.0019 45.6639 48.1381 46.1875 47.7156C48.0176 46.2392 49.5149 44.3986 50.5819 42.3135C50.8872 41.7167 50.5897 41.0047 49.9669 40.7462C49.344 40.4877 48.6319 40.7814 48.3193 41.3742C47.4401 43.0414 46.2371 44.5202 44.7799 45.7257C44.2614 46.1546 44.1232 46.906 44.5106 47.4538Z" fill="#3A6FC4"/>
<path d="M39.0398 40.3497C39.4517 40.9753 40.308 41.1591 40.8598 40.6498C41.4267 40.1266 41.9152 39.5225 42.3077 38.8551C42.7004 38.1877 42.9902 37.4688 43.17 36.7223C43.3454 35.9957 42.7617 35.3487 42.0091 35.3021C41.2563 35.2554 40.6249 35.8331 40.3845 36.5411C40.2725 36.8712 40.1264 37.1904 39.9482 37.4934C39.77 37.7962 39.5617 38.0796 39.3269 38.339C38.8237 38.8952 38.6278 39.7241 39.0398 40.3497Z" fill="#E7BE56"/>
<path d="M35.4477 37.8866C37.1151 37.8866 38.4669 36.5477 38.4669 34.8961C38.4669 33.2445 37.1151 31.9056 35.4477 31.9056C33.7802 31.9056 32.4285 33.2445 32.4285 34.8961C32.4285 36.5477 33.7802 37.8866 35.4477 37.8866Z" fill="#3A6FC4"/>
<path d="M55.9113 14.5095L48.4192 22.0514M35.3359 35.2215L48.4192 22.0514L35.3359 35.2215ZM55.9113 14.5095L55.3734 7.90414C55.3656 7.80647 55.2428 7.76638 55.1777 7.84019L48.4467 15.475C48.429 15.4952 48.4192 15.5211 48.4192 15.5479V22.0514L55.9113 14.5095ZM55.9113 14.5095H62.1125C62.2141 14.5095 62.263 14.6328 62.1886 14.7014L54.488 21.7917C54.4683 21.8097 54.4428 21.8202 54.4162 21.8212L48.4192 22.0514L55.9113 14.5095Z" stroke="#3A6FC4" stroke-width="2.2"/>
<path d="M71.8386 17.1936H85.4922V30.7911H81.8181V20.3901H75.463V30.7911H71.8386V17.1936ZM92.4822 21.0786C91.7209 21.8163 91.3403 22.7916 91.3403 24.0047C91.3403 25.2177 91.7209 26.2012 92.4822 26.9553C93.26 27.6929 94.2365 28.0618 95.4115 28.0618C96.57 28.0618 97.5299 27.6929 98.2912 26.9553C99.069 26.2012 99.4579 25.2177 99.4579 24.0047C99.4579 22.7916 99.069 21.8163 98.2912 21.0786C97.5299 20.3246 96.57 19.9475 95.4115 19.9475C94.2365 19.9475 93.26 20.3246 92.4822 21.0786ZM100.848 18.8902C102.371 20.2344 103.132 21.9392 103.132 24.0047C103.132 26.0701 102.371 27.7749 100.848 29.1191C99.3255 30.4633 97.5133 31.1354 95.4115 31.1354C93.3097 31.1354 91.4975 30.4633 89.9749 29.1191C88.4523 27.7749 87.691 26.0701 87.691 24.0047C87.691 21.9392 88.4523 20.2344 89.9749 18.8902C91.4975 17.5461 93.3097 16.874 95.4115 16.874C97.5133 16.874 99.3255 17.5461 100.848 18.8902ZM105.342 17.1936H108.967V25.8242L116.191 17.1936H119.666V30.7911H116.042V22.2097L108.843 30.7911H105.342V17.1936ZM136.643 20.7344L133.813 22.3326C133.284 21.5622 132.68 20.9967 132.001 20.636C131.339 20.259 130.503 20.0705 129.494 20.0705C128.269 20.0705 127.285 20.4311 126.54 21.1524C125.812 21.8573 125.448 22.808 125.448 24.0047C125.448 25.1849 125.82 26.1357 126.565 26.8569C127.309 27.5782 128.286 27.9388 129.494 27.9388C131.381 27.9388 132.812 27.193 133.789 25.7013L136.619 27.2749C135.228 29.8485 132.87 31.1354 129.544 31.1354C127.293 31.1354 125.439 30.4879 123.983 29.1929C122.543 27.8979 121.823 26.1685 121.823 24.0047C121.823 21.8573 122.551 20.136 124.008 18.8411C125.481 17.5297 127.326 16.874 129.544 16.874C132.854 16.874 135.22 18.1608 136.643 20.7344ZM138.749 17.1936H142.373V21.9884H145.6L148.902 17.1936H153.122L148.703 23.4883L153.42 30.7911H149.076L145.7 25.3079H142.373V30.7911H138.749V17.1936ZM158.859 21.0786C158.098 21.8163 157.717 22.7916 157.717 24.0047C157.717 25.2177 158.098 26.2012 158.859 26.9553C159.637 27.6929 160.613 28.0618 161.788 28.0618C162.947 28.0618 163.907 27.6929 164.668 26.9553C165.446 26.2012 165.835 25.2177 165.835 24.0047C165.835 22.7916 165.446 21.8163 164.668 21.0786C163.907 20.3246 162.947 19.9475 161.788 19.9475C160.613 19.9475 159.637 20.3246 158.859 21.0786ZM167.225 18.8902C168.747 20.2344 169.509 21.9392 169.509 24.0047C169.509 26.0701 168.747 27.7749 167.225 29.1191C165.702 30.4633 163.89 31.1354 161.788 31.1354C159.686 31.1354 157.874 30.4633 156.352 29.1191C154.829 27.7749 154.068 26.0701 154.068 24.0047C154.068 21.9392 154.829 20.2344 156.352 18.8902C157.874 17.5461 159.686 16.874 161.788 16.874C163.89 16.874 165.702 17.5461 167.225 18.8902ZM171.719 17.1936H180.631C181.889 17.1936 182.915 17.5379 183.709 18.2263C184.52 18.9148 184.926 19.8246 184.926 20.9557C184.926 21.9392 184.603 22.6523 183.958 23.0949C185.215 23.8161 185.844 24.9554 185.844 26.5127C185.844 27.7093 185.406 28.7257 184.529 29.5617C183.668 30.3813 182.609 30.7911 181.351 30.7911H171.719V17.1936ZM175.368 20.4393V22.2589H180.606C180.788 22.2589 180.954 22.1687 181.103 21.9884C181.268 21.7917 181.351 21.5786 181.351 21.3491C181.351 21.136 181.277 20.9311 181.128 20.7344C180.995 20.5377 180.78 20.4393 180.482 20.4393H175.368ZM175.368 25.4062V27.5208H181.252C181.55 27.5208 181.79 27.4307 181.972 27.2504C182.17 27.0536 182.27 26.7996 182.27 26.4881C182.27 26.1766 182.162 25.9226 181.947 25.7259C181.732 25.5128 181.467 25.4062 181.152 25.4062H175.368ZM194.86 20.4147L192.675 25.6521H197.516L195.431 20.4147H194.86ZM192.526 17.1936H197.839L203.672 30.7911H199.8L198.931 28.7994H191.335L190.49 30.7911H186.568L192.526 17.1936ZM218.894 17.1936V30.7911H215.245V27.9388H210.975L209.51 30.7911H205.538L207.599 27.1028C206.837 26.6602 206.217 26.0537 205.737 25.2833C205.273 24.4964 205.042 23.603 205.042 22.6031C205.042 20.9967 205.588 19.6935 206.68 18.6935C207.772 17.6936 209.146 17.1936 210.801 17.1936H218.894ZM215.245 20.4885H210.925C210.263 20.4885 209.725 20.677 209.312 21.054C208.898 21.431 208.691 21.9474 208.691 22.6031C208.691 23.2424 208.898 23.7424 209.312 24.103C209.725 24.4473 210.263 24.6194 210.925 24.6194H215.245V20.4885ZM71.8386 37.7949H75.463V46.4255L82.687 37.7949H86.1624V51.3924H82.538V42.811L75.3389 51.3924H71.8386V37.7949ZM88.7914 37.7949H92.4406V42.7618H99.1681V37.7949H102.842V51.3924H99.1681V46.0075H92.4406V51.3924H88.7914V37.7949ZM108.879 37.7949H120.075V48.1467H121.639V53.8758H118.461L118.188 51.3924H108.656L108.407 53.8758H105.205V48.1467H106.893L108.879 37.7949ZM111.883 40.9422L110.691 48.1467H116.426V40.9422H111.883ZM122.825 37.7949H126.599L128.485 43.3765C128.601 43.7043 128.833 43.8683 129.18 43.8683H132.656L134.716 37.7949H138.465L134.791 48.4909C134.493 49.3433 133.972 50.04 133.227 50.5809C132.482 51.1219 131.655 51.3924 130.744 51.3924H126.698V48.3434H130.595C131.026 48.3434 131.324 48.1221 131.489 47.6795L131.663 47.0894H129.031C127.956 47.0894 127.103 46.8599 126.474 46.4009C125.846 45.9419 125.357 45.2124 125.01 44.2125L122.825 37.7949ZM154.126 41.3356L151.296 42.9339C150.767 42.1635 150.163 41.5979 149.484 41.2373C148.822 40.8603 147.986 40.6717 146.977 40.6717C145.752 40.6717 144.767 41.0324 144.023 41.7536C143.294 42.4585 142.93 43.4093 142.93 44.6059C142.93 45.7862 143.303 46.7369 144.047 47.4582C144.792 48.1795 145.769 48.5401 146.977 48.5401C148.863 48.5401 150.295 47.7942 151.271 46.3025L154.101 47.8762C152.711 50.4498 150.353 51.7366 147.026 51.7366C144.776 51.7366 142.922 51.0891 141.466 49.7941C140.026 48.4991 139.306 46.7697 139.306 44.6059C139.306 42.4585 140.034 40.7373 141.49 39.4423C142.963 38.1309 144.809 37.4752 147.026 37.4752C150.336 37.4752 152.703 38.762 154.126 41.3356ZM155.865 37.7949H170.213V41.0406H164.876V51.3924H161.202V41.0406H155.865V37.7949ZM172.415 37.7949H180.533C182.205 37.7949 183.578 38.303 184.654 39.3194C185.73 40.3193 186.268 41.6143 186.268 43.2044C186.268 44.7944 185.73 46.073 184.654 47.0402C183.578 48.0073 182.205 48.4909 180.533 48.4909H176.065V51.3924H172.415V37.7949ZM176.065 41.0897V45.196H180.384C181.046 45.196 181.576 45.0239 181.973 44.6797C182.387 44.3354 182.594 43.8437 182.594 43.2044C182.594 42.5651 182.387 42.0569 181.973 41.6799C181.576 41.2865 181.046 41.0897 180.384 41.0897H176.065ZM188.471 37.7949H192.096V46.4255L199.32 37.7949H202.795V51.3924H199.171V42.811L191.971 51.3924H188.471V37.7949ZM218.804 37.7949V51.3924H215.155V48.5401H210.885L209.42 51.3924H205.449L207.509 47.7041C206.748 47.2615 206.127 46.655 205.647 45.8845C205.184 45.0977 204.952 44.2043 204.952 43.2044C204.952 41.5979 205.498 40.2947 206.59 39.2948C207.683 38.2948 209.056 37.7949 210.711 37.7949H218.804ZM215.155 41.0897H210.835C210.174 41.0897 209.636 41.2783 209.222 41.6553C208.808 42.0323 208.601 42.5487 208.601 43.2044C208.601 43.8437 208.808 44.3436 209.222 44.7043C209.636 45.0485 210.174 45.2206 210.835 45.2206H215.155V41.0897Z" fill="#1F232E"/>
</svg>
